<svg width="140" height="17" viewBox="0 0 140 17" fill='#525252' xmlns="http://www.w3.org/2000/svg">
<g clip-path="url(#clip0_275_145)">
<path d="M139.996 0.0560913V16.3037H135.475V0.0560913H139.996Z" />
<path d="M133.387 16.3037H128.816L116.996 5.71031V16.3037H112.433V0.0560913H116.996L128.819 10.6915V0.0560913H133.39L133.387 16.3037Z" />
<path d="M25.7163 5.46494C25.7109 4.7527 25.8553 4.04711 26.1404 3.39297C26.4255 2.73883 26.845 2.15042 27.3724 1.66507C28.4894 0.61345 29.9858 0.0560913 31.8653 0.0560913H41.9681C43.8724 0.0560913 45.3688 0.599429 46.461 1.66507C46.9868 2.14324 47.4055 2.72495 47.6901 3.37276C47.9747 4.02058 48.119 4.72013 48.1135 5.42637V10.9369C48.1092 11.6405 47.9573 12.3356 47.6674 12.9781C47.3775 13.6207 46.9558 14.1969 46.4291 14.6701C45.3121 15.7638 43.8298 16.3037 41.9504 16.3037H31.8617C30.0107 16.3037 28.5248 15.7638 27.383 14.6701C26.8574 14.1888 26.4381 13.6053 26.1513 12.9563C25.8645 12.3072 25.7164 11.6066 25.7163 10.8983V5.46494ZM40.8085 12.637C41.534 12.6596 42.2432 12.4218 42.805 11.9675C43.0603 11.7526 43.2629 11.4832 43.3974 11.1795C43.532 10.8759 43.5949 10.546 43.5816 10.2148V6.05735C43.5918 5.72329 43.5279 5.39106 43.3943 5.08403C43.2608 4.77699 43.0608 4.50259 42.8085 4.28011C42.2522 3.81609 41.5392 3.57694 40.8121 3.61057H33.0355C32.3119 3.57858 31.6027 3.81768 31.0497 4.28011C30.8034 4.50729 30.6074 4.78257 30.4744 5.0885C30.3413 5.39443 30.274 5.72435 30.2766 6.05735V10.2393C30.2642 10.5668 30.3277 10.8928 30.4623 11.1924C30.5969 11.4919 30.799 11.757 31.0532 11.9675C31.6094 12.422 32.3143 12.6601 33.0355 12.637H40.8085Z" />
<path d="M68.0602 5.46494C68.0541 4.75292 68.1979 4.04744 68.4824 3.39328C68.7669 2.73913 69.1858 2.1506 69.7127 1.66507C70.8297 0.61345 72.3297 0.0560913 74.2056 0.0560913H84.3085C86.2127 0.0560913 87.7127 0.599429 88.8014 1.66507C89.3279 2.14269 89.7471 2.7243 90.0317 3.37224C90.3164 4.02018 90.4602 4.72 90.4539 5.42637V10.9369C90.4514 11.6394 90.3017 12.3339 90.0142 12.9764C89.7268 13.6189 89.3078 14.1956 88.7836 14.6701C87.6702 15.7638 86.1844 16.3037 84.3049 16.3037H74.2092C72.3546 16.3037 70.8723 15.7638 69.7269 14.6701C69.202 14.1883 68.7831 13.6047 68.4964 12.9557C68.2096 12.3068 68.0612 11.6065 68.0602 10.8983V5.46494ZM83.1489 12.637C83.8754 12.6595 84.5857 12.4217 85.1489 11.9675C85.403 11.7517 85.6045 11.4821 85.7383 11.1786C85.8722 10.8751 85.935 10.5456 85.9219 10.2148V6.05735C85.9339 5.72306 85.8707 5.39032 85.7371 5.08302C85.6034 4.77573 85.4025 4.50152 85.1489 4.28011C84.5926 3.81609 83.8795 3.57694 83.1524 3.61057H75.3794C74.6558 3.57858 73.9466 3.81768 73.3936 4.28011C73.1473 4.50729 72.9514 4.78257 72.8183 5.0885C72.6852 5.39443 72.6179 5.72435 72.6205 6.05735V10.2393C72.6082 10.5665 72.6714 10.8921 72.8053 11.1916C72.9392 11.491 73.1404 11.7564 73.3936 11.9675C73.9497 12.422 74.6546 12.6601 75.3758 12.637H83.1489Z" />
<path d="M105.514 10.0535C107.695 10.0535 111.436 10.0044 111.436 4.93913C111.436 0.708095 107.823 0.0560913 105.514 0.0560913H89.5L91.6277 3.67017H105.152C105.709 3.67017 106.844 3.70522 106.844 5.07233C106.844 6.43944 105.78 6.44295 105.071 6.44295H91.1667L100.089 13.9515C101.895 15.4695 104.189 16.3032 106.56 16.3037H110.496L102.11 10.057L105.514 10.0535Z" />
<path d="M19.8475 0.0595703L12.1028 8.59525L4.39362 0.0595703H0V16.3107H4.39362V6.60768L12.1028 15.1048L19.8121 6.60768V16.3107H24.2092V0.0595703H19.8475Z" />
<path d="M47.4078 -0.003479L49.5355 3.60709H55.532V16.2266H60.0639V3.60709H66.883C66.883 3.60709 69.0107 0.0455968 69.0107 -0.003479H47.4078Z" />
</g>
<defs>
<clipPath id="clip0_275_145">
<rect width="140" height="16.3107" />
</clipPath>
</defs>
</svg>
