<?xml version="1.0" encoding="utf-8"?>
<!-- Generator: Adobe Illustrator 26.0.0, SVG Export Plug-In . SVG Version: 6.00 Build 0)  -->
<svg version="1.1" id="Слой_1" xmlns="http://www.w3.org/2000/svg" xmlns:xlink="http://www.w3.org/1999/xlink" x="0px" y="0px"
	 viewBox="0 0 595.3 542" style="enable-background:new 0 0 595.3 542;" xml:space="preserve">
<style type="text/css">
	.st0{fill:#29A845;}
	.st1{fill:#1C1F23;}
	.st2{fill:#A3C963;}
</style>
<g>
	<g>
		<g>
			<polygon class="st0" points="432.7,98.8 396,77.5 359.2,56.3 296.7,97.5 362.5,135.5 428.3,173.5 			"/>
			<polygon class="st0" points="139.8,436.2 176.6,457.5 213.3,478.7 275.8,437.5 210,399.5 144.3,361.5 			"/>
			<polygon class="st0" points="213.3,56.1 176.6,77.6 140,99 144.9,173.7 210.4,135.3 276,97 			"/>
			<polygon class="st0" points="67.3,224.8 67.1,267.2 66.9,309.7 133.7,343.5 134,267.5 134.4,191.6 			"/>
			<polygon class="st0" points="360.5,479.3 397.2,457.8 433.9,436.4 428.9,361.7 363.4,400.1 297.8,438.4 			"/>
			<polygon class="st0" points="506.5,310.6 506.7,268.2 506.9,225.7 440.1,191.9 439.8,267.9 439.4,343.8 			"/>
		</g>
		<g>
			<path class="st1" d="M352.6,134.6h-41.9c-7.7-1.4-15.7-2.1-23.8-2.1c-8.1,0-16.1,0.7-23.8,2.1H220l29.2-58.4h74.2L352.6,134.6z"
				/>
			<path class="st1" d="M352.6,400.8l-29.2,58.5h-74.2L220,400.8H263c7.7,1.4,15.7,2.1,23.8,2.1c8.1,0,16.1-0.7,23.8-2.1H352.6z"/>
			<path class="st1" d="M204,143.3l-22.8,40c-8.8,11-15.9,23.3-20.9,36.7l-21.9,38.4l-36.3-54.3l18.4-32.2l18.3-32.2L204,143.3z"/>
			<path class="st1" d="M204.1,391.8l-65.3,3.6l-18.4-32.2L102.1,331l36.3-54.4l21.7,38c5.2,14,12.6,26.9,21.9,38.3L204.1,391.8z"/>
			<path class="st1" d="M471.6,331l-18.3,32.2l-18.4,32.2l-65.3-3.5l22.3-39.1c9.2-11.4,16.6-24.3,21.8-38.2l21.6-37.9L471.6,331z"
				/>
			<path class="st1" d="M471.6,204.1l-36.2,54.4l-22-38.6c-5.1-13.4-12.2-25.8-21-36.7l-22.7-39.8l65.3-3.6l18.4,32.2L471.6,204.1z"
				/>
		</g>
		<g>
			<polygon class="st2" points="395.7,141.9 368.4,126.4 340.3,110.1 294.5,140.7 343.4,169.5 392.2,197.8 			"/>
			<polygon class="st2" points="181.4,393 204.5,408.7 231.9,424.6 278.4,394 229.5,365.7 180.6,337.3 			"/>
			<polygon class="st2" points="232.3,110.1 205.1,126.1 177.8,142 181.4,197.5 230.2,169.1 279,140.7 			"/>
			<polygon class="st2" points="123.1,235.6 123.3,267 123.1,299.4 172.8,323.9 173.2,267.4 173.5,210.8 			"/>
			<polygon class="st2" points="340.6,424.6 368.7,409.4 396.3,393.3 392.4,337.9 343.6,366.3 294.8,394 			"/>
			<polygon class="st2" points="450.7,299.8 450.5,268.4 450.7,235.6 401,211.6 400.6,268.1 400.3,324.6 			"/>
		</g>
	</g>
</g>
</svg>
